<svg width="96" height="132" viewBox="0 0 96 132" fill="none" xmlns="http://www.w3.org/2000/svg"><path fill-rule="evenodd" clip-rule="evenodd" d="M40 31v-5a1 1 0 10-2 0v4.235l-8.56-5.102a.934.934 0 00-.96 0 .998.998 0 00-.48.858V31h-3a1 1 0 100 2h3v5.009c0 .354.183.681.48.858a.934.934 0 00.96 0L38 33.765V38a1 1 0 102 0v-5h2a1 1 0 100-2h-2zm-10.005 5.287v-8.584L37.12 32l-7.125 4.287zM32 91a1 1 0 00-1 1v1h-3a1 1 0 00-1 1v3h-1a1 1 0 100 2h1v2h-1a1 1 0 000 2h1v3a1 1 0 001 1h3v1a1 1 0 002 0v-1h2v1a1 1 0 002 0v-1h3a1 1 0 001-1v-3h1a1 1 0 000-2h-1v-2h1a1 1 0 100-2h-1v-3a1 1 0 00-1-1h-3v-1a1 1 0 10-2 0v1h-2v-1a1 1 0 00-1-1zm-3 4v10h10V95H29zM64.477 68.89a6 6 0 111.414-1.414l1.816 1.817a1 1 0 01-1.414 1.414l-1.817-1.816zM65 64a4 4 0 11-8 0 4 4 0 018 0z" fill="#0091EA"/><path fill-rule="evenodd" clip-rule="evenodd" d="M33.951 50H34c9.941 0 18-8.059 18-18s-8.059-18-18-18-18 8.059-18 18c0 9.248 6.975 16.868 15.951 17.885V57a9 9 0 004.893 8.01A9 9 0 0031.992 73v9.11C22.996 83.11 16 90.739 16 100c0 9.941 8.059 18 18 18s18-8.059 18-18-8.059-18-18-18h-.008v-9a7 7 0 016.966-7h3.07c.518 9.476 8.366 17 17.972 17 9.941 0 18-8.059 18-18s-8.059-18-18-18c-9.606 0-17.454 7.524-17.973 17h-3.076a7 7 0 01-7-7v-7zm0-2H34c8.837 0 16-7.163 16-16s-7.163-16-16-16-16 7.163-16 16c0 8.29 6.305 15.108 14.382 15.92h1.57V48zM34 116c-8.837 0-16-7.163-16-16s7.163-16 16-16 16 7.163 16 16-7.163 16-16 16zm28-35c-8.837 0-16-7.163-16-16s7.163-16 16-16 16 7.163 16 16-7.163 16-16 16z" fill="#0091EA"/></svg>