<svg width="96" height="132" viewBox="0 0 96 132" fill="none" xmlns="http://www.w3.org/2000/svg"><path d="M45.003 84.997l-.002.004-.557.83c.16.107.35.169.556.169h2.625v-2H46v-1.813h-2V85c0 .206.062.397.168.556l.832-.557.003-.002zM72 84h-1.625v2H73a.995.995 0 00.556-.168L72.999 85l-.002-.003.004.002.83.557A.995.995 0 0074 85v-2.813h-2V84zM72 57.813h2V55a.995.995 0 00-.168-.556l-.832.557-.003.002.002-.004.557-.83A.995.995 0 0073 54h-2.625v2H72v1.813zM45 54h2.625v2H46v1.813h-2V55c0-.206.062-.397.168-.556l.835.56-.559-.836A.995.995 0 0145 54zM46 74.688v5.624h-2v-5.624h2zM46 67.188v5.624h-2v-5.624h2zM46 59.688v5.624h-2v-5.624h2zM54.625 56h-5.25v-2h5.25v2zM61.625 56h-5.25v-2h5.25v2zM68.625 56h-5.25v-2h5.25v2zM72 65.313v-5.626h2v5.626h-2zM72 80.313v-5.626h2v5.626h-2zM63.375 84h5.25v2h-5.25v-2zM49.375 84h5.25v2h-5.25v-2z" fill="#0091EA"/><path fill-rule="evenodd" clip-rule="evenodd" d="M24 54a2 2 0 00-2 2v11a2 2 0 002 2h14a2 2 0 002-2V56a2 2 0 00-2-2H24zm14 2H24v11h14V56z" fill="#0091EA"/><path d="M59 66a1 1 0 00-1 1v2h-2a1 1 0 100 2h2v2a1 1 0 102 0v-2h2a1 1 0 100-2h-2v-2a1 1 0 00-1-1zM72 72.813v-5.626h2v5.626h-2z" fill="#0091EA"/><path fill-rule="evenodd" clip-rule="evenodd" d="M24 71a2 2 0 00-2 2v11a2 2 0 002 2h14a2 2 0 002-2V73a2 2 0 00-2-2H24zm14 2H24v11h14V73z" fill="#0091EA"/><path d="M56.375 84h5.25v2h-5.25v-2z" fill="#0091EA"/><path fill-rule="evenodd" clip-rule="evenodd" d="M16 40a2 2 0 012-2h60a2 2 0 012 2v52a2 2 0 01-2 2H18a2 2 0 01-2-2V40zm2 0h60v5H18v-5zm0 7v45h60V47H18z" fill="#0091EA"/></svg>