<svg viewBox="0 0 24 24" xmlns="http://www.w3.org/2000/svg">
<path d="M23.2309 15.979C22.919 15.823 22.5519 15.823 22.24 15.979L12 21.099L1.76002 15.979C1.4481 15.823 1.08096 15.823 0.76905 15.979C-0.0475513 16.3873 -0.0475512 17.5526 0.76905 17.9609L12 23.5764L23.2309 17.9609C24.0475 17.5526 24.0476 16.3873 23.2309 15.979Z"/>
<path d="M23.2309 11.3036C22.919 11.1476 22.5519 11.1476 22.24 11.3036L12 16.4236L1.76002 11.3036C1.4481 11.1476 1.08096 11.1476 0.76905 11.3036C-0.0475513 11.7119 -0.0475512 12.8772 0.76905 13.2855L12 18.901L23.2309 13.2855C24.0475 12.8772 24.0476 11.7119 23.2309 11.3036Z"/>
<path d="M12 3.46173L19.4111 7.16763C19.7726 7.34844 19.7726 7.86445 19.4111 8.04526L12 11.7512L4.58894 8.04526C4.22735 7.86445 4.22735 7.34844 4.58894 7.16763L12 3.46173ZM12 1L0.542418 6.72879C-0.180805 7.0904 -0.180807 8.12248 0.542416 8.48409L12 14.2129L23.4576 8.48409C24.1808 8.12248 24.1808 7.0904 23.4576 6.72879L12 1Z"/>
</svg>
