<svg width="96" height="132" viewBox="0 0 96 132" fill="none" xmlns="http://www.w3.org/2000/svg"><path d="M28.5 53h-4a.5.5 0 00-.5.5v4a.5.5 0 00.5.5h4a.5.5 0 00.5-.5v-4a.5.5 0 00-.5-.5zM33.5 53h4a.5.5 0 01.5.5v4a.5.5 0 01-.5.5h-4a.5.5 0 01-.5-.5v-4a.5.5 0 01.5-.5zM28.5 62h-4a.5.5 0 00-.5.5v4a.5.5 0 00.5.5h4a.5.5 0 00.5-.5v-4a.5.5 0 00-.5-.5zM33.5 62h4a.5.5 0 01.5.5v4a.5.5 0 01-.5.5h-4a.5.5 0 01-.5-.5v-4a.5.5 0 01.5-.5zM28.5 71h-4a.5.5 0 00-.5.5v4a.5.5 0 00.5.5h4a.5.5 0 00.5-.5v-4a.5.5 0 00-.5-.5zM33.5 71h4a.5.5 0 01.5.5v4a.5.5 0 01-.5.5h-4a.5.5 0 01-.5-.5v-4a.5.5 0 01.5-.5z" fill="#0091EA"/><path fill-rule="evenodd" clip-rule="evenodd" d="M52 55a1 1 0 00-1 1v4h-1a1 1 0 000 2h1v3h-1a1 1 0 000 2h1v4a1 1 0 001 1h4v1a1 1 0 002 0v-1h3v1a1 1 0 002 0v-1h4a1 1 0 001-1v-4h1a1 1 0 000-2h-1v-3h1a1 1 0 000-2h-1v-4a1 1 0 00-1-1h-4v-1a1 1 0 00-2 0v1h-3v-1a1 1 0 00-2 0v1h-4zm14 2.5v12a.5.5 0 01-.5.5h-12a.5.5 0 01-.5-.5v-12a.5.5 0 01.5-.5h12a.5.5 0 01.5.5z" fill="#0091EA"/><path fill-rule="evenodd" clip-rule="evenodd" d="M16.586 42.586A2 2 0 0016 44v41a2 2 0 002 2h34v2a1 1 0 001 1h17a1 1 0 001-1v-2h7a2 2 0 002-2V44a2 2 0 00-2-2H18a2 2 0 00-1.414.586zm37.56 45.268A.5.5 0 0154 87.5v-3a.5.5 0 01.5-.5h14a.5.5 0 01.5.5v3a.5.5 0 01-.5.5h-14a.5.5 0 01-.354-.146zm16.561-5.561A1 1 0 0171 83v2h6a1 1 0 001-1V45a1 1 0 00-1-1H19a1 1 0 00-1 1v39a1 1 0 001 1h33v-2a1 1 0 011-1h17a1 1 0 01.707.293z" fill="#0091EA"/></svg>