<svg viewBox="0 0 16 16" xmlns="http://www.w3.org/2000/svg">
<path d="M15.0041 8.1996C15.0041 7.59961 14.9041 6.9996 14.7041 6.4996C14.3041 5.2996 13.5041 4.4996 12.2041 4.2996C10.9041 3.9996 9.80405 4.2996 9.00405 5.3996L8.90405 5.4996V4.2996H5.90405V13.2996H8.90405V12.9996V8.1996C8.90405 7.59961 9.10405 7.0996 9.60405 6.6996C10.5041 6.0996 11.6041 6.4996 11.9041 7.4996C12.0041 7.8996 12.0041 8.29961 12.0041 8.59961V13.3996H15.0041V13.1996V8.1996ZM1.20405 13.3996H4.20405V4.3996H1.20405V13.3996ZM3.30405 0.0996047C2.30405 -0.200395 1.40405 0.199605 1.10405 0.999605C0.704052 2.0996 1.50405 3.0996 2.70405 3.0996C3.50405 3.0996 4.20405 2.6996 4.30405 1.9996C4.50405 1.0996 4.10405 0.299605 3.30405 0.0996047Z" />
</svg>
