<svg width="96" height="132" viewBox="0 0 96 132" fill="none" xmlns="http://www.w3.org/2000/svg"><path fill-rule="evenodd" clip-rule="evenodd" d="M43 77a4.99 4.99 0 002 4v3a3 3 0 106 0v-3a5 5 0 10-8-4zm6 7v-4.17a3.001 3.001 0 10-2 0V84a1 1 0 102 0z" fill="#0091EA"/><path fill-rule="evenodd" clip-rule="evenodd" d="M25.255 59.39c.804-.83 1.894-1.39 3.03-1.39h2.717v-6.979C31.002 41.621 38.886 34 48 34c9.112 0 17.012 7.62 17.012 17.021V58h2.702c1.137 0 2.227.56 3.03 1.39A4.493 4.493 0 0172 62.516v31.063a4.493 4.493 0 01-1.255 3.126A4.22 4.22 0 0167.715 98h-39.43a4.22 4.22 0 01-3.03-1.295A4.493 4.493 0 0124 93.58V62.516c0-1.173.451-2.297 1.255-3.126zm1.515 1.563c-.401.414-.773.976-.773 1.563v31.063c0 .586.372 1.149.773 1.563.402.415.947.856 1.516.856h39.428c.569 0 1.114-.441 1.516-.856.401-.414.77-.977.77-1.563V62.516c0-.587-.369-1.149-.77-1.563-.402-.415-.947-.927-1.516-.927H28.286c-.569 0-1.114.512-1.516.927zM63.045 58v-6.979c0-8.179-7.116-14.81-15.045-14.81-7.93 0-14.987 6.631-14.987 14.81V58h30.032z" fill="#0091EA"/></svg>