<svg width="96" height="132" viewBox="0 0 96 132" fill="none" xmlns="http://www.w3.org/2000/svg"><path fill-rule="evenodd" clip-rule="evenodd" d="M18.612 29.55a.998.998 0 01.273-.267l4.478-2.946a2.01 2.01 0 012.23 0l12.383 8.15c.667.44 1.024 1.206 1.024 1.974V53.62c0 .768-.358 1.535-1.026 1.974l-12.28 8.07a2.01 2.01 0 01-2.226.003l-4.485-2.934c-.497-.262-.84-.749-.983-1.277v-11.04c0-.691.354-1.335.936-1.703l9.2-5.81c.403-.265.92-.265 1.323.002.383.253.564.673.564 1.066v5.728c0 .395-.184.819-.57 1.071l-4.432 2.77v3.825a1956.63 1956.63 0 016.888-4.557c.041-.027.12-.124.12-.29 0-1.834.002-3.668.003-5.501.002-1.834.004-3.668.004-5.502 0-.166-.08-.263-.12-.29a848.094 848.094 0 01-6.913-4.606l.02 3.714c0 .392-.153.809-.533 1.062l-4.672 2.886c-.402.268-.92.27-1.326.005-.384-.253-.47-.67-.47-1.063V30.695c.082-.43.281-.842.59-1.145zm5.843-1.529c.02-.013.026-.013.046 0l12.382 8.15c.041.027.12.124.12.29V53.62c0 .167-.079.263-.12.29l-12.28 8.07c-.021.013-.027.013-.047 0l-2.898-1.895c2.172-1.396 4.307-2.847 6.441-4.298 1.628-1.106 3.257-2.213 4.902-3.296.667-.439 1.025-1.205 1.025-1.973 0-1.834.001-3.668.003-5.501l.003-5.502c0-.768-.357-1.534-1.024-1.973a728.835 728.835 0 01-11.393-7.652l2.84-1.868zm-4.422 3.254v8.503l2.998-1.936v-4.55l-.418-.281c-.86-.58-1.72-1.158-2.58-1.736zm2.991 25.415v-3.849l-2.982 1.982s-.01 2.786-.01 3.854a8999.3 8999.3 0 002.6-1.726l.392-.26zm-2.822-8.288l7.824-5.024v3.925l-3.31 2.002v-.006l-4.674 3.129v-3.66c0-.262.108-.332.154-.361l.006-.005zM17.27 73.457c1.413-.249 4.648-.563 9.632-.422 2.862.081 4.946.459 6.405.92.73.23 1.313.484 1.763.74.433.245.803.525 1.044.837l.157.204.044.257c.124.72.296 1.77.436 2.733.133.917.256 1.877.249 2.339a1.888 1.888 0 01-.02.25v.006a1.163 1.163 0 01-.234.546l-.04.052-.048.046c-.619.598-1.56.807-2.25.896a9.73 9.73 0 01-1.938.041h-5.871c-.203 0-.544.054-.827.197-.262.133-.388.29-.43.49-.218 1.18.07 1.489.19 1.594.105.092.261.176.496.254.18.06.349.099.547.145l.255.06c.335.083 1.487.205 2.913.323 1.377.114 2.895.217 3.87.277l.817.05.114.836c.031.23.078.586.117.914.035.29.076.659.076.844v.032c.002.176.008.774-.162 1.446-.183.722-.599 1.655-1.552 2.24l-.003.002c-2.566 1.56-5.945 1.56-7.433 1.56h-.035c-.023.011-.09.056-.188.2-.154.23-.285.585-.321.983-.036.395.03.752.174 1.016.13.24.356.462.783.581.968.27 2.754.43 4.685.51 1.898.078 3.829.075 5.022.048l1.088-.025-.068 1.12c-.083 1.357-.243 4.212-.243 5.04v.711l-.644.253a17.21 17.21 0 01-1.135.401c-.237.075-.474.145-.71.21-2.592.714-5.037.829-6.165.774H16.325L16 73.743l.781-.188.147-.033c.101-.021.215-.043.341-.066zm.768 4.154l.224 22.15c1.235-3.654 2.434-8.321 2.434-12.259 0-4.083-1.355-7.585-2.658-9.89zm.814 26.314h9.028l.026.002c.268.014.647.016 1.11-.004-1.268-.481-2.6-1.092-3.794-1.839-2.005-1.256-3.352-3.337-3.868-5.446a8.664 8.664 0 01-.025-.103 62.03 62.03 0 01-2.477 7.39zm3.613-13.043c.147-1.151.23-2.288.23-3.38 0-4.973-1.798-9.156-3.393-11.708 5.897.939 9.78 2.088 12.237 3.15 1.364.59 2.26 1.14 2.815 1.59.09.074.17.143.238.206-.127.028-.27.053-.43.074a7.764 7.764 0 01-1.562.03l-.044-.004h-5.957c-.442 0-1.097.098-1.71.408-.63.32-1.302.918-1.506 1.927l-.002.008-.001.008c-.3 1.612-.008 2.8.853 3.56.386.34.82.53 1.186.65.271.09.564.158.782.21l.166.038c.226.056.606.112 1.073.167-1.483.525-3.363 1.442-4.785 2.865a4.888 4.888 0 00-.19.2zm10.241-2.332l-3.079.784-.03.006c-1.125.212-3.828 1.098-5.55 2.822-.604.603-.93 1.502-.933 2.552a4.14 4.14 0 01.607-1.523c.359-.533.969-1.088 1.805-1.088 1.548 0 4.42-.023 6.476-1.272.333-.206.53-.557.638-.987.1-.398.1-.757.098-.922v-.036-.007a5.442 5.442 0 00-.032-.329zm-8.472 9.75a6.645 6.645 0 002.025 2.021c2.421 1.516 5.566 2.438 7.196 2.79.045-.599.129-1.308.266-2.021.093-.483.217-1.003.384-1.506-1.05 0-2.28-.017-3.5-.067-1.912-.08-3.91-.242-5.124-.58a3.351 3.351 0 01-1.247-.636zm10.422-20.05c-.085-.553-.174-1.1-.252-1.558a2.934 2.934 0 00-.297-.19c-.307-.175-.76-.378-1.385-.576-1.25-.394-3.15-.752-5.875-.83a90.55 90.55 0 00-.584-.014c2.545.632 4.527 1.303 6.048 1.96.94.406 1.715.812 2.345 1.209zM51.305 59.283l.44-1.947h8.639l-1.996 1.798c-.035.031-.15.156-.252.347a1.231 1.231 0 00-.158.57v1.962l3.028-3.115v-1.562h8.005l.207 2.03c-.156.035-.453.12-.765.258-.324.142-.58.303-.723.45-.545.56-4.233 4.39-6.012 6.238l-.007.007-.334.333 5.63 6.993.015.02.001.001.019.02c.01.012.027.027.049.048.054.05.127.11.22.18.185.14.418.291.663.433l.046.026c.005-.165.009-.397.009-.707v-9.075c0-.604-.014-.903-.026-.986V63.6c-.028-.2-.095-.38-.21-.551l-1.066-1.605h7.234v12.223c0 .602.014.91.027 1.005v.003c.027.204.096.382.21.548l1.107 1.617h-8.62l.006-.008h-6.159l-.229-1.963a6.65 6.65 0 00-.042-.05.376.376 0 00-.098.05c-.03.022-.044.041-.044.041l.002-.003.003-.005a.603.603 0 00.053-.152l.002-.012.003-.014c-.372-.435-1.146-1.29-2.003-2.236l-.201-.222v2.199c.108.119.36.314.852.314v2.053h-7.084l-.312-2.002-.01.003-.004.002h-.002l.006-.003c.014-.009.054-.032.123-.085a4.2 4.2 0 00.331-.285c.049-.046.096-.092.139-.135V59.708a3.805 3.805 0 00-.165-.11 6.753 6.753 0 00-.506-.293l-.033-.017-.008-.004zm2.712.106v15.389h1.96V67l1.739 1.95c.534.6 1.175 1.307 1.795 1.992 1.082 1.193 2.102 2.32 2.393 2.691.158.202.22.418.246.54.031.14.042.277.044.398 0 .067-.001.136-.006.206h3.137L58.66 66.5l1.642-1.639c1.395-1.45 3.965-4.118 5.272-5.473h-2.592a1.866 1.866 0 01-.01.1l-.046.34-6.949 7.15V60.05c0-.232.027-.453.072-.662h-2.032zm6.99-.094v-.083l-.018-.002a.117.117 0 000 .04.162.162 0 00.017.045zm-.734 15.518a.77.77 0 00.03.048l-.007-.054-.011.003-.012.003zm9.73-11.318c.02.268.026.648.026 1.096v9.075c0 .463-.006.85-.028 1.12h1.988c-.022-.27-.029-.657-.029-1.12v-10.17h-1.958z" fill="#0091EA"/><path fill-rule="evenodd" clip-rule="evenodd" d="M49.215 51.15h19.098c.607-1.267 1.855-2.15 3.323-2.15 1.469 0 2.717.883 3.324 2.15h.825c1.382 0 2.215 1.196 2.215 2.293v27.264C78 81.804 77.167 83 75.785 83h-26.57C47.833 83 47 81.804 47 80.707V53.443c0-1.097.833-2.293 2.215-2.293zm22.421-.097c-.921 0-1.718.798-1.718 1.845s.796 1.844 1.718 1.844c.922 0 1.718-.797 1.718-1.844 0-1.047-.796-1.845-1.718-1.845zm0 5.742c1.98 0 3.56-1.606 3.707-3.592h.442c.119 0 .215.107.215.24v27.264c0 .133-.096.24-.215.24h-26.57c-.119 0-.215-.107-.215-.24V53.443c0-.133.096-.443.215-.443H68c.148 1.986 1.656 3.795 3.636 3.795z" fill="#0091EA"/></svg>