<svg viewBox="0 0 16 16" xmlns="http://www.w3.org/2000/svg">
<path d="M15.7362 3.42853C15.1921 3.66831 14.6111 3.83154 13.9978 3.90532C14.6222 3.52997 15.1027 2.93698 15.3286 2.23056C14.7439 2.57178 14.0956 2.82078 13.4058 2.95911C12.8543 2.36889 12.0686 2 11.1961 2C9.52505 2 8.16938 3.35567 8.16938 5.0249C8.16938 5.26468 8.19705 5.49524 8.24777 5.71657C5.73194 5.59668 3.50108 4.38856 2.00799 2.56256C1.74608 3.00615 1.59852 3.52259 1.59852 4.08515C1.59852 5.13649 2.13342 6.06148 2.94497 6.60467C2.44882 6.58899 1.98125 6.45251 1.57362 6.22656V6.26345C1.57362 7.72979 2.61574 8.9545 4.00184 9.23302C3.74731 9.30126 3.47986 9.33815 3.20412 9.33815C3.01045 9.33815 2.82601 9.3197 2.64156 9.28466C3.0289 10.4872 4.14479 11.3624 5.47279 11.3873C4.4399 12.1989 3.13034 12.6821 1.71934 12.6821C1.47956 12.6821 1.23978 12.6683 1 12.6406C2.34645 13.4983 3.93268 14 5.64802 14C11.2183 14 14.2616 9.38887 14.2616 5.39563C14.2616 5.26652 14.2616 5.13741 14.2524 5.0083C14.8426 4.58408 15.3591 4.04919 15.7648 3.44052L15.7362 3.42853Z" />
</svg>
