<svg width="64" height="64" viewBox="0 0 64 64" fill="none" xmlns="http://www.w3.org/2000/svg">
<path fill-rule="evenodd" clip-rule="evenodd" d="M32 0C14.3269 0 0 14.3269 0 32C0 49.6731 14.3269 64 32 64C49.6731 64 64 49.6731 64 32C64 14.3269 49.6731 0 32 0ZM32 2C15.4315 2 2 15.4315 2 32C2 48.5685 15.4315 62 32 62C48.5685 62 62 48.5685 62 32C62 15.4315 48.5685 2 32 2Z" fill="#484848"/>
<path fill-rule="evenodd" clip-rule="evenodd" d="M32 0V2C48.5685 2 62 15.4315 62 32C62 48.5685 48.5685 62 32 62C15.4315 62 2 48.5685 2 32H0C0 49.6731 14.3269 64 32 64C49.6731 64 64 49.6731 64 32C64 14.3269 49.6731 0 32 0Z" fill="#0091EA"/>
</svg>
