<svg viewBox="0 0 16 16" xmlns="http://www.w3.org/2000/svg">
<path fill-rule="evenodd" clip-rule="evenodd" d="M0 7.33109C0 5.95718 0.16 4.58114 0.16 4.58114C0.16 4.58114 0.316 3.4132 0.796 2.89612C1.404 2.21978 2.204 2.24102 2.56 2.16988C3.84 2.03822 8 2 8 2C8 2 11.362 2.00425 13.6 2.17625C13.914 2.2166 14.596 2.21872 15.204 2.89612C15.684 3.41214 15.84 4.5822 15.84 4.5822C15.84 4.5822 16 5.95611 16 7.33215V8.66785C16 10.0439 15.84 11.4178 15.84 11.4178C15.84 11.4178 15.684 12.5879 15.204 13.1039C14.596 13.7813 13.914 13.7834 13.6 13.8237C11.362 13.9958 8 14 8 14C8 14 3.84 13.9607 2.56 13.8301C2.204 13.759 1.404 13.7802 0.796 13.1039C0.316 12.5868 0.16 11.4189 0.16 11.4189C0.16 11.4189 0 10.0439 0 8.66891V7.33109ZM6.348 10.2297V5.45709L10.671 7.85135L6.351 10.2297H6.348Z" />
</svg>
